<svg xmlns="http://www.w3.org/2000/svg" width="120" height="141" viewBox="0 0 126.1 149">
	<path d="M121.5 73.3c-1.3-9.3-5.2-15.7-9.1-19.9l-.3-.3c-5.4-5.6-13.5-10-24.4-8.8-12.1 1.4-17.8 8-20.5 13.6-2.1 4.3-2.4 7.9-2.4 7.9s3.1-2.2 7.3-1c6.5 2 10.2 17.7 7.4 34.7-1.8 10.8-5.7 19.6-10.2 24.8-2.2 2.4-6.7 6.1-12.6 4.5-6.4-1.7-11.9-8.5-8.2-33.8.5-2.3 15.4-90.4 15.4-90.4H22C18 51.5 9.4 97.4 3.9 144.4l.5-.5.2-.2c2.8-2.4 13.1-9.7 31.1-5.7.9.2 1.9.4 2.8.6 3.1.7 6.4 1.5 10.3 2.2 5.4.9 10.8 1.4 16.3 1.3h2.5c2.4-.1 4.9-.4 5.3-.4 12.1-1.4 23.5-5.8 32.1-15 13.4-14.1 18.5-31 16.9-49.4 0-.6-.4-3.9-.4-4"/>
</svg>
