<?xml version="1.0" encoding="UTF-8"?>
<svg viewBox="0 0 450 101" xmlns="http://www.w3.org/2000/svg">
  <title>
    Beautycounter
  </title>
  <g fill="none" fill-rule="evenodd">
    <path d="M18.1325 100H3V2h15.1325c5.845 0 13.1857 2.9423 13.1857 15.4483v21.4908c0 5.297-1.7995 8.976-5.845 11.1817 4.0455 2.3547 5.845 6.0294 5.845 11.1773v23.258C31.3182 97.0577 23.9774 100 18.1325 100zm2.9961-82.8455c0-3.3808-1.3484-4.7007-3.2953-4.7007h-4.3446V45.556h3.8936c2.2505 0 3.7463-1.7627 3.7463-5.148V17.1546zm0 42.9685c0-3.2318-1.4958-5.148-3.7463-5.148h-3.8936v34.7247h4.3446c1.9469 0 3.2953-1.4734 3.2953-4.8498v-24.727zM37.3864 2v98H61.659V89.8444H47.7935V54.6768h9.7917V44.5256h-9.7917V12.1512H61.659V2H37.3864" fill="#0A0B09"/>
    <g transform="translate(65.7045 1)">
      <mask id="a" fill="#fff">
        <path d="M.801.6819h63.4481v99.0546H.801z"/>
      </mask>
      <path d="M10.8046.6819L.801 98.823h9.256l1.6465-18.865h8.366l1.0413 18.865h10.7467L22.0053.682H10.8047zm5.6737 24.3146l2.8347 44.3522h-6.7195l3.8848-44.3522zM49.9112 100c-8.0634 0-14.3334-6.7802-14.3334-16.8011V.6819h10.3017v83.3996c0 3.3945 1.4952 5.1598 4.183 5.1598 2.8347 0 4.3299-1.7653 4.3299-5.1598V.682h9.8567v82.517c0 10.021-6.2745 16.8011-14.3379 16.8011" fill="#0A0B09" mask="url(#a)"/>
    </g>
    <path fill="#0A0B09" d="M134.4773 2v10.5941h9.238V100h10.2862V12.5941h8.794V2h-28.3182"/>
    <g transform="translate(165.8295)">
      <mask id="b" fill="#fff">
        <path d="M.5243.4655h132.3454v100.271H.5243z"/>
      </mask>
      <path fill="#0A0B09" mask="url(#b)" d="M23.0064 1.6819L16.759 45.0065 10.4986 1.6819H.5243l10.4269 59.6778v38.4634h10.2715V61.3597l11.616-59.6778h-9.8323M49.424 101c-8.0442 0-14.744-6.7802-14.744-16.8055V17.271C34.68 7.395 41.3798.4655 49.424.4655c8.3414 0 13.5549 6.9295 13.5549 16.8055v18.7201h-8.7896v-19.752c0-2.8017-1.4864-5.015-4.468-5.015-3.1281 0-4.6145 2.2133-4.6145 5.015v68.9873c0 2.8017 1.4864 5.0105 4.6144 5.0105 2.9817 0 4.468-2.2088 4.468-5.0105V65.3207h8.7897v18.8738c0 10.0253-5.2135 16.8055-13.555 16.8055M83.136 101c-8.0443 0-14.744-6.7802-14.744-16.8055V17.271c0-9.876 6.6997-16.8055 14.744-16.8055 8.0441 0 14.7439 6.9295 14.7439 16.8055v66.9235c0 10.0253-6.6998 16.8055-14.744 16.8055m4.3216-85.0552c0-2.6567-1.6417-4.7206-4.3216-4.7206-2.8308 0-4.3216 2.0639-4.3216 4.7206v69.5759c0 2.8016 1.4908 4.7162 4.3216 4.7162 2.68 0 4.3216-1.9146 4.3216-4.7162V15.9448M118.5694 101c-8.0442 0-14.3003-6.7802-14.3003-16.8055V1.6467h10.2804v83.4348c0 3.3901 1.4864 5.1554 4.1708 5.1554 2.8263 0 4.3171-1.7653 4.3171-5.1554V1.6467h9.8323v82.5478c0 10.0253-6.2561 16.8055-14.3003 16.8055"/>
    </g>
    <path fill="#0A0B09" d="M328.6536 2v63.713l-2.2369-14.2725L316.8598 2h-10.4507v98h9.1077V36.4317l2.5393 14.1234L329.552 100h8.2094V2h-9.1078M342.8182 2v10.5947h9.2396V100h10.283V12.5947h8.7956V2h-28.3182M376.1932 2v98h24.2727V89.8436h-13.8637V54.68h9.798V44.5235h-9.798V12.152h13.8637V2h-24.2727M429.1028 100c-3.4542 0-5.1053-5.8652-5.1053-12.0277V62.147c0-2.9326-1.5034-4.9824-3.9061-4.9824h-4.0583v42.5426h-10.5104V2h15.1682c5.857 0 13.2174 2.9282 13.2174 15.4017V41.317c0 5.131-1.9508 8.8022-5.857 11.1492 3.9062 2.3513 6.1568 5.8696 6.1568 11.1536V87.238c0 4.4011.452 7.4823 1.6555 9.9779V100h-6.7608zm-5.5572-82.8911c0-3.374-1.2036-4.6983-3.1544-4.6983h-4.3581v34.7718h3.9061c2.2551 0 3.6064-1.6128 3.6064-5.131V17.1089zM448 6.9709C448 9.7877 445.8097 12 442.9587 12c-2.82 0-5.0723-2.2123-5.0723-5.0291 0-2.7586 2.2524-4.9709 5.0723-4.9709C445.8097 2 448 4.2123 448 6.9709zm-8.85 0c0 2.2123 1.6184 3.9722 3.8397 3.9722 2.1593 0 3.751-1.76 3.751-3.9409 0-2.2122-1.5917-4.0035-3.782-4.0035S439.15 4.79 439.15 6.9709zm3.0283 2.6064h-1.1439v-4.971c.4478-.0895 1.0863-.1522 1.8933-.1522.931 0 1.3523.1523 1.7114.3672.266.2105.4789.6046.4789 1.0882 0 .5464-.4168.9718-1.0198 1.151v.0627c.4833.179.7493.5463.8956 1.2136.1552.7568.2439 1.0568.3636 1.2405h-1.2282c-.1507-.1837-.2438-.636-.3901-1.2137-.0887-.5418-.3902-.7881-1.0198-.7881h-.541v2.0018zm.031-2.8169h.541c.6296 0 1.135-.215 1.135-.73 0-.4523-.328-.7568-1.0463-.7568-.3015 0-.5143.0314-.6296.0627v1.4241z"/>
  </g>
</svg>